<?xml version="1.0" encoding="UTF-8" standalone="no"?>
<svg width="810px" height="130px" viewBox="0 0 810 130" version="1.1" xmlns="http://www.w3.org/2000/svg" xmlns:xlink="http://www.w3.org/1999/xlink">
    <!-- Generator: Sketch 3.8.3 (29802) - http://www.bohemiancoding.com/sketch -->
    <title>site-builder-logo</title>
    <desc>Created with Sketch.</desc>
    <defs></defs>
    <g id="Page-1" stroke="none" stroke-width="1" fill="none" fill-rule="evenodd">
        <g id="site-builder-logo" fill="#ECF0F1">
            <path d="M72.321,115.06 L115.057,115.06 L115.057,91.5 L72.321,91.5 L72.321,115.06 Z M14.79,115.06 L57.531,115.06 L57.531,91.5 L14.79,91.5 L14.79,115.06 Z M14.79,38.353 L57.531,38.353 L57.531,14.794 L14.79,14.794 L14.79,38.353 Z M14.79,76.706 L39.038,76.706 L39.038,53.148 L14.79,53.148 L14.79,76.706 Z M53.833,76.706 L115.057,76.706 L115.057,53.148 L53.833,53.148 L53.833,76.706 Z M72.321,38.353 L115.057,38.353 L115.057,14.794 L72.321,14.794 L72.321,38.353 Z M0,129.853 L129.85,129.853 L129.85,0 L0,0 L0,129.853 Z" id="Fill-1"></path>
            <text id="SITE" font-family="DIN-Bold" font-size="106.069" font-weight="bold">
                <tspan x="157" y="108">SITE</tspan>
            </text>
            <text id="BUILDER" font-family="DIN-Regular" font-size="106.069" font-weight="normal">
                <tspan x="377" y="105">BUILDER</tspan>
            </text>
        </g>
    </g>
</svg>